<svg width="29" height="28" viewBox="0 0 29 28" fill="none" xmlns="http://www.w3.org/2000/svg">
<path d="M15.5094 25.1133C21.0342 24.4244 25.3094 19.7114 25.3094 14C25.3094 7.81441 20.295 2.8 14.1094 2.8C7.92378 2.8 2.90937 7.81441 2.90937 14C2.90937 19.7114 7.18454 24.4244 12.7094 25.1133V16.8H9.90937V14H12.7094V11.6841C12.7094 9.81197 12.9043 9.13307 13.2704 8.44862C13.6363 7.76418 14.1735 7.22702 14.858 6.86098C15.3937 6.57446 16.0583 6.40153 17.2198 6.32736C17.6806 6.29791 18.2773 6.33546 19.0094 6.44V9.1H18.3094C17.0252 9.1 16.4953 9.16065 16.1784 9.33006C15.982 9.43515 15.8445 9.57261 15.7394 9.7691C15.57 10.0859 15.5094 10.3999 15.5094 11.6841V14H19.0094L18.3094 16.8H15.5094V25.1133ZM14.1094 28C6.37738 28 0.109375 21.7319 0.109375 14C0.109375 6.26801 6.37738 0 14.1094 0C21.8413 0 28.1094 6.26801 28.1094 14C28.1094 21.7319 21.8413 28 14.1094 28Z" fill="#9C4322"/>
</svg>
