<svg width="93" height="96" viewBox="0 0 93 96" fill="none" xmlns="http://www.w3.org/2000/svg">
<path d="M34.1527 67.7775L33.8708 66.5725L32.7215 64.875L31.2656 66.4734L34.1527 67.7775Z" fill="#EFD8C4"/>
<path d="M17.5781 34.3431C17.5781 34.3431 21.8251 32.6828 24.2165 36.1429C26.7876 34.5073 26.8123 34.1077 26.8123 34.1077C26.8123 34.1077 25.217 31.6048 24.2165 31.7999C23.2159 31.9951 17.9684 31.5831 17.5781 34.3462V34.3431Z" fill="#EFD8C4"/>
<path d="M79.42 30.4665C79.5718 30.5377 79.7143 30.6462 79.8227 30.7546C79.8599 30.7918 79.894 30.8289 79.9281 30.863C79.9404 30.8754 79.9528 30.8878 79.9652 30.9002C79.9869 30.9157 80.0086 30.9281 80.0334 30.9404C80.0396 30.9404 80.0427 30.9466 80.0489 30.9497C80.0643 30.9559 80.0798 30.959 80.0984 30.9652C80.1108 30.9652 80.1201 30.9652 80.1294 30.9652C80.1449 30.9621 80.1604 30.9559 80.1759 30.9528C80.1975 30.9404 80.213 30.9281 80.2223 30.925C80.2967 30.8816 80.3741 30.8413 80.4454 30.7887C80.6498 30.6431 80.8419 30.482 81.0649 30.3643C81.0897 30.3519 81.1145 30.3457 81.1393 30.3364C81.1207 30.2001 81.1021 30.0638 81.0804 29.9275C81.0432 29.6611 80.9968 29.3978 80.9534 29.1345C80.9441 29.0942 80.9379 29.054 80.9317 29.0137C80.7242 27.8582 80.4609 26.74 80.1573 25.6651C77.6884 16.911 72.3759 10.917 69.6406 9.29688C69.9442 9.6624 70.2416 10.031 70.5328 10.4089C70.5358 10.412 70.539 10.4182 70.5451 10.4244C74.1168 15.0803 76.5268 20.6902 77.3291 26.8112C77.3725 27.1086 77.4065 27.406 77.4375 27.7065C77.453 27.8489 77.4654 27.9945 77.4778 28.1401C77.5769 28.1401 77.6791 28.168 77.7566 28.2145C77.865 28.2764 77.9951 28.422 78.0137 28.549C78.0385 28.7132 78.0601 28.8805 78.0787 29.0447C78.7014 29.5465 79.1536 30.0979 79.42 30.4634V30.4665Z" fill="#EFD8C4"/>
<path d="M30.5153 62.9562L27.8389 65.5862C27.4083 65.3291 26.9746 65.0596 26.5471 64.7746C16.9195 57.8729 9.86915 45.5255 11.0122 40.4453C13.7599 50.615 21.0363 58.8983 30.5153 62.9531V62.9562Z" fill="#EFD8C4"/>
<path d="M63.7529 65.5377C60.7482 66.7922 57.2633 68.0561 53.4779 68.9235H53.4748C53.3757 68.908 53.3044 68.8956 53.261 68.8894H53.2548L50.9688 64.8593C51.5356 64.7354 52.0994 64.596 52.6539 64.4442C55.9622 63.5335 59.0661 62.1302 61.8881 60.3119C61.8912 60.3119 61.8912 60.3088 61.8943 60.3088C62.0244 60.2282 62.1514 60.1446 62.2784 60.061C62.3156 60.0331 62.3559 60.0083 62.393 59.9835H62.3961C62.5882 59.8565 62.7771 59.7264 62.963 59.5963C62.994 59.5746 63.025 59.5529 63.0559 59.5312V59.9866L63.7529 65.5377Z" fill="#EFD8C4"/>
<path d="M81.3035 38.6406C81.2788 38.8977 81.2509 39.1548 81.2199 39.415C81.1889 39.6722 81.1549 39.9293 81.1177 40.1895C81.0991 40.3289 81.0774 40.4714 81.0557 40.6139C80.9876 41.063 80.9101 41.5153 80.8234 41.9706C80.8203 41.9737 80.8203 41.9768 80.8203 41.9799C80.7831 42.1782 80.7429 42.3733 80.6995 42.5716C80.6159 42.9774 80.5229 43.3863 80.4238 43.7952C79.0082 49.6034 76.0344 55.8731 70.7931 62.3937C70.4306 62.5579 70.0403 62.7314 69.6284 62.9203L68.5658 59.9806L68.8942 60.0519L68.2158 59.011C68.2158 59.011 68.2127 59.0079 68.2127 59.0048L67.1719 56.1271C67.3701 55.935 67.5653 55.743 67.7573 55.5447C71.8897 51.3536 74.9533 46.0813 76.499 40.1895C76.5672 39.9324 76.6322 39.6753 76.6911 39.415C76.753 39.1579 76.8119 38.8977 76.8646 38.6406H81.3035Z" fill="#EFD8C4"/>
<path d="M47.6641 41.8906C47.6641 41.8906 49.9254 45.3724 53.8192 44.1365C56.4584 43.297 48.1411 47.4355 48.1411 47.4355L47.6641 41.8906Z" fill="#EFD8C4"/>
<path d="M74.0491 73.6795V75.1572H43.9272C43.9272 75.1572 43.3882 74.8319 42.623 74.3425C42.4093 74.2062 42.1739 74.0575 41.9292 73.8995C40.052 72.6821 37.5149 70.9319 37.4406 70.3186V70.3124C37.4406 70.3124 37.4375 70.3031 37.4375 70.2969C37.4375 70.2969 40.4454 72.7255 48.6078 72.7255C52.3188 72.7255 67.1475 73.3729 72.2865 73.6021C73.3924 73.6486 74.0491 73.6795 74.0491 73.6795Z" fill="#EFD8C4"/>
<path d="M1.86719 42.2911L9.38218 36.1793L30.7872 45.8317L9.73533 30.8203L1.86719 42.2911Z" fill="#EFD8C4"/>
<path d="M17.3516 83.0781C16.887 83.0781 16.509 83.4653 16.509 83.9393V90.6241H10.2796V83.9393C10.2796 83.4653 9.90166 83.0781 9.43701 83.0781C8.97236 83.0781 8.57585 83.456 8.57585 83.9393V90.6241H8.45194C7.99348 90.6241 7.60938 91.002 7.60938 91.4512C7.60938 91.9003 7.98729 92.2938 8.45194 92.2938H8.57585V94.8401C8.57585 95.3233 8.95377 95.7012 9.43701 95.7012C9.92025 95.7012 10.2796 95.314 10.2796 94.8401V92.2938H16.509V94.8401C16.509 95.314 16.887 95.7012 17.3516 95.7012C17.8163 95.7012 18.2128 95.3233 18.2128 94.8401V83.9393C18.2128 83.456 17.8349 83.0781 17.3516 83.0781Z" fill="#9C4322"/>
<path d="M34.1144 84.7662C34.5883 84.7662 34.9755 84.3883 34.9755 83.9237C34.9755 83.459 34.5821 83.0625 34.1144 83.0625L26.4352 83.078C25.7382 83.078 25.3541 83.4621 25.3541 84.1591V90.624H24.908C24.4341 90.624 24.0469 90.9957 24.0469 91.451C24.0469 91.9064 24.4341 92.2936 24.908 92.2936H25.3541V94.6386C25.3541 95.3232 25.7382 95.7011 26.4352 95.7011H33.7767C34.2352 95.7011 34.6193 95.3232 34.6193 94.874C34.6193 94.4248 34.2414 94.0314 33.7767 94.0314H27.0609V92.2936H33.9657C34.4396 92.2936 34.8268 91.9157 34.8268 91.451C34.8268 90.9864 34.4396 90.624 33.9657 90.624H27.0609V84.7662H34.1175H34.1144Z" fill="#9C4322"/>
<path d="M42.1424 83.0781C41.6592 83.0781 41.2812 83.456 41.2812 83.9393V94.8401C41.2812 95.3233 41.6592 95.7012 42.1424 95.7012C42.6256 95.7012 42.985 95.314 42.985 94.8401V83.9393C42.985 83.4653 42.6071 83.0781 42.1424 83.0781Z" fill="#9C4322"/>
<path d="M57.9416 89.9857L59.5833 87.0677C59.6701 86.8942 59.6701 86.7517 59.6701 86.6681C59.6701 86.2034 59.2921 85.8255 58.8275 85.8255C58.6447 85.8255 58.3071 85.8813 58.0655 86.284L56.9751 88.2603L56.0396 90.0167L54.3265 93.1763L49.5623 83.5301C49.4136 83.2327 49.1162 83.0469 48.7879 83.0469C48.3232 83.0469 47.9453 83.4248 47.9453 83.8894C47.9453 84.0753 48.0135 84.2116 48.0475 84.2829L53.4902 95.2518C53.642 95.608 53.9455 95.8187 54.2987 95.8187C54.6239 95.8187 54.8841 95.6483 55.0793 95.3044L56.9906 91.7576L57.9385 89.9826L57.9416 89.9857Z" fill="#9C4322"/>
<path d="M56.0957 89.9857L54.4539 87.0677C54.3672 86.8942 54.3672 86.7517 54.3672 86.6681C54.3672 86.2034 54.7451 85.8255 55.2098 85.8255C55.3925 85.8255 55.7302 85.8813 55.9718 86.284L57.0622 88.2603L57.9977 90.0167L59.7107 93.1763L64.475 83.5301C64.6236 83.2327 64.921 83.0469 65.2494 83.0469C65.714 83.0469 66.092 83.4248 66.092 83.8894C66.092 84.0753 66.0238 84.2116 65.9897 84.2829L60.5471 95.2518C60.3953 95.608 60.0917 95.8187 59.7386 95.8187C59.4133 95.8187 59.1531 95.6483 58.958 95.3044L57.0467 91.7576L56.0988 89.9826L56.0957 89.9857Z" fill="#9C4322"/>
<path d="M80.9334 94.6856C80.921 94.6174 80.9024 94.5524 80.8683 94.4935L75.2243 83.4781C75.0478 83.125 74.7814 82.9453 74.4344 82.9453C74.0875 82.9453 73.8211 83.125 73.6476 83.4719L69.9676 90.6276H69.1312C68.6727 90.6276 68.2886 91.0055 68.2886 91.4547C68.2886 91.9038 68.6603 92.291 69.1219 92.2972L67.9881 94.4966C67.9541 94.5648 67.8828 94.7041 67.8828 94.8962C67.8828 95.3609 68.2607 95.7388 68.7254 95.7388C69.0692 95.7388 69.3666 95.5498 69.506 95.2462L71.027 92.2972H77.8388L79.3567 95.2462C79.493 95.5467 79.7903 95.7388 80.1218 95.7388C80.5864 95.7388 80.9644 95.3609 80.9644 94.8962C80.9644 94.859 80.9644 94.825 80.9551 94.7909L80.9396 94.6887L80.9334 94.6856ZM71.8633 90.6245L74.4189 85.6093L76.9745 90.6245H71.8633Z" fill="#9C4322"/>
<path d="M32.53 65.1272L32.5207 65.1148L32.118 65.5857L32.5641 65.1706L32.53 65.1272ZM32.53 65.1272L32.5207 65.1148L32.118 65.5857L32.5641 65.1706L32.53 65.1272ZM81.1762 24.1076C79.1999 17.5776 75.4392 11.7044 70.2537 7.14462C70.6038 6.86892 70.9538 6.59633 71.3069 6.32064C71.4804 6.18124 71.53 5.99538 71.4711 5.78164C71.3844 5.47496 70.9104 5.23025 70.5914 5.32627C69.9811 5.51523 69.374 5.70109 68.7606 5.89625C68.4013 5.61126 68.0327 5.32937 67.6609 5.05678C67.568 4.96694 67.4658 4.87711 67.3605 4.80276C67.3171 4.76559 67.2799 4.72223 67.2335 4.68506C66.9856 4.47131 66.7347 4.25757 66.4776 4.05003C66.4033 3.98807 66.3878 3.954 66.4776 3.88275C66.7626 3.66591 67.0383 3.43668 67.3171 3.21055C68.1907 2.50428 69.058 1.79491 69.9285 1.08244C70.1577 0.899676 70.2011 0.589904 70.0276 0.373065C69.9656 0.304916 69.882 0.252258 69.82 0.187207C69.6218 -0.0172408 69.4049 -0.0420248 69.1447 0.0540037C68.1039 0.456703 67.0476 0.847012 66.0068 1.2683C65.7187 1.38601 65.505 1.39531 65.254 1.18466C65.0093 0.974021 64.65 1.02358 64.4177 1.25591C64.238 1.43558 64.1048 1.65242 63.9499 1.85377C63.9127 1.90023 63.8911 1.96528 63.8756 2.02724C63.8425 2.13256 63.7826 2.15218 63.6959 2.08609C63.0671 1.64003 62.4413 1.18776 61.8156 0.738595C61.5926 0.580613 61.354 0.453607 61.0907 0.369969C60.973 0.308016 60.8429 0.277037 60.7097 0.252256C60.7004 0.24606 60.6942 0.246064 60.688 0.246064C60.2358 0.146938 59.7866 0.159328 59.3343 0.255356C59.0091 0.326603 58.879 0.521759 58.9224 0.856309C58.9967 1.43868 59.2259 1.95908 59.5884 2.42064C59.8857 2.79856 60.2822 3.05567 60.6726 3.31897C61.1713 3.65972 61.6824 3.98498 62.1749 4.34431C62.2617 4.40626 62.2648 4.44343 62.1687 4.50229C62.0851 4.54875 62.0262 4.62929 61.9736 4.71603C61.8899 4.85543 61.8001 4.99792 61.7196 5.13732C61.67 5.20856 61.6297 5.28291 61.6173 5.36345C61.5833 5.44399 61.5647 5.52143 61.5647 5.59577C61.5647 5.72897 61.6143 5.85288 61.6917 5.9706C61.7846 6.10999 61.9271 6.18744 62.0603 6.27727C62.1316 6.32373 62.1594 6.3733 62.1563 6.46003C62.1347 7.68672 62.1161 8.9134 62.0944 10.1401C62.0913 10.3167 62.1316 10.4684 62.2493 10.5954C62.3267 10.6853 62.4444 10.7163 62.5436 10.7751C62.8564 10.9827 63.2127 10.868 63.3397 10.5087C63.5968 9.76836 63.8508 9.01872 64.111 8.27528C64.334 7.61857 64.5633 6.96496 64.7863 6.31134C64.8111 6.237 64.8297 6.20602 64.9164 6.25868C65.7063 6.72643 66.5117 7.1694 67.3357 7.5659C67.4131 7.60308 67.4441 7.64645 67.4503 7.73938C67.4751 8.34343 67.5247 8.95057 67.5277 9.55462C67.5277 9.91705 67.7043 10.1339 67.9924 10.2981C68.2216 10.4313 68.5933 10.3569 68.646 10.1494C68.6894 9.9883 68.773 9.8551 68.8226 9.70331C68.8969 9.46479 68.9744 9.23556 69.0487 9.00323C69.5598 9.45859 70.0524 9.92945 70.5325 10.4158C70.5356 10.4158 70.5418 10.422 70.5449 10.4313C75.3401 15.2637 78.5927 21.3909 79.9092 28.0819C79.9154 28.1036 79.9185 28.1284 79.9216 28.1532C79.9681 28.3545 80.0021 28.5621 80.0393 28.7696C80.0548 28.8501 80.0703 28.9307 80.0827 29.0112C80.1446 29.0174 80.2035 29.0205 80.2624 29.0236C80.4947 29.0391 80.7177 29.0391 80.9315 29.0205C81.3868 28.9864 81.7833 29.259 82.0745 29.036C82.1241 28.9957 82.2604 28.9926 82.3037 28.9462C82.0466 27.4469 81.6161 25.548 81.1762 24.1076ZM32.53 65.1272L32.5207 65.1148L32.118 65.5857L32.5641 65.1706L32.53 65.1272ZM47.241 22.4441L46.4387 23.7606C46.355 23.9 46.2652 24.0487 46.1692 24.2098L47.8264 23.1504C47.4826 22.7322 47.2688 22.4782 47.241 22.4441ZM34.0572 66.738L34.209 66.7876C34.1873 66.7566 34.1656 66.7256 34.1408 66.6915C34.1315 66.6822 34.1253 66.673 34.1222 66.6637C33.6979 66.0658 33.3075 65.4525 32.9544 64.8236C32.9544 64.8205 32.9544 64.8174 32.9513 64.8143L32.7902 64.963L32.7716 64.9785L32.5641 65.1706L32.5734 65.183L32.7686 65.4432C32.9606 65.7003 33.1589 65.9543 33.3633 66.199C33.3757 66.2145 33.3881 66.2331 33.4005 66.2486C33.4965 66.3694 33.5956 66.484 33.6948 66.6017C33.701 66.6079 33.7041 66.6141 33.7072 66.6203H33.7102V66.6234C33.8496 66.7876 33.989 66.9517 34.1315 67.1128C34.1625 67.1469 34.1904 67.181 34.2214 67.2119H34.4537L34.0541 66.738H34.0572ZM32.53 65.1272L32.5207 65.1148L32.118 65.5857L32.5641 65.1706L32.53 65.1272ZM32.53 65.1272L32.5207 65.1148L32.118 65.5857L32.5641 65.1706L32.53 65.1272ZM32.53 65.1272L32.5207 65.1148L32.118 65.5857L32.5641 65.1706L32.53 65.1272ZM81.0585 40.6183C81.0027 40.6214 80.9469 40.6214 80.8912 40.6214C80.6527 40.6276 80.4141 40.6307 80.1787 40.6368C80.1508 40.8289 80.123 41.021 80.092 41.213V41.2223C80.0145 41.7334 79.9247 42.2384 79.8256 42.7402C79.7853 42.9446 79.745 43.1491 79.6986 43.3504C78.1807 50.4937 74.7361 56.5373 69.851 60.3599L69.7147 59.985H68.962C68.5934 58.4981 68.1907 57.0205 67.7601 55.5491C66.2732 50.438 64.4548 45.4166 62.5652 40.4479L58.1108 51.9434V51.9496L58.0147 52.2377C59.2104 52.5475 60.4402 52.8541 61.6452 53.1453C62.0262 55.3044 62.4444 57.4604 62.9648 59.5978C62.9927 59.7279 63.0268 59.858 63.0578 59.9881C62.81 59.9881 62.59 59.9881 62.398 59.985H62.3949C62.144 59.9881 61.9488 59.9881 61.828 59.985C61.8373 60.0346 61.859 60.1492 61.8899 60.3134C62.0324 61.0723 62.3825 62.9433 62.7387 64.836C59.0803 66.6017 56.4876 66.8495 54.4276 66.8495C54.409 66.8495 54.3873 66.8557 54.3657 66.8557C54.3347 66.8495 54.1364 66.8154 54.1147 66.8123C53.743 66.2052 52.7301 64.5541 52.7301 64.5541C52.7053 64.517 52.6805 64.4798 52.6557 64.4457C51.6056 62.8814 50.0165 61.6795 48.2229 61.094C47.179 60.7595 46.0979 60.4745 45.023 60.239L46.5626 52.659L46.6152 52.405L46.544 52.1541L45.6023 48.7063C46.0607 48.5515 46.5254 48.3935 46.6214 48.3625C46.6462 48.3625 47.2069 48.0806 47.9596 47.9102L49.558 49.7255C48.8022 50.407 48.319 51.3858 48.319 52.4855C48.319 54.5331 49.9793 56.1935 52.0269 56.1935C54.0745 56.1935 55.7317 54.5331 55.7317 52.4855C55.7317 51.073 54.9387 49.8432 53.7771 49.2175L55.7008 48.0713C57.1536 47.204 57.4541 44.0133 57.1969 42.0277C57.1969 42.0246 56.8159 41.687 56.8159 41.687C56.6053 41.529 56.3977 41.371 56.3977 41.371C55.7844 40.9311 48.1052 35.0641 47.7707 34.8473C47.4547 35.4947 46.5935 37.3378 46.1413 38.2826V38.2919H46.1351L45.9926 38.7628C45.9926 38.7628 43.1396 40.1164 39.8592 41.8883C37.2788 43.2823 34.432 44.9488 32.499 47.2814C32.499 47.2845 32.496 47.2876 32.4929 47.2907C29.547 51.2867 28.4008 56.0045 29.7235 60.7285C29.4385 61.0785 29.5222 60.9794 29.3797 61.156L28.63 62.0729L27.0657 63.9903C25.3527 63.0084 24.4079 62.2556 24.3862 62.2371C18.6307 57.7268 14.4736 51.5779 12.4477 44.6546C12.4477 44.6515 12.4446 44.6484 12.4446 44.6453C12.1069 43.4898 11.8282 42.3158 11.6113 41.1232C11.5029 40.5253 10.9329 40.1319 10.3382 40.2403C9.74651 40.3457 9.34691 40.9156 9.45533 41.5104C11.0692 50.3884 15.8923 58.3649 23.0232 63.9501C23.0666 63.9903 23.9866 64.7276 25.6655 65.7127L25.4642 65.9574L18.5532 74.6743L17.1562 74.6681V74.6743H16.2579C15.9295 74.6898 15.6011 74.6743 15.2697 74.6619H15.2542C15.025 74.6557 14.7926 74.6495 14.5634 74.6588C14.2506 74.6681 13.9408 74.7022 13.631 74.7827C11.8808 75.0708 10.1306 75.3744 8.38662 75.7678C10.1306 76.1674 11.8808 76.4709 13.631 76.759C14.5077 76.9914 15.3843 76.8303 16.2579 76.8643H19.402L19.7551 76.4338L21.8213 73.8937L22.3634 73.2277C22.5462 73.0015 22.7382 72.7692 22.9303 72.5338L25.6284 69.2223H25.6315C25.9846 68.7887 26.3439 68.3488 26.7033 67.9058C26.7373 67.8625 26.7745 67.8191 26.8086 67.7757L28.5495 65.6414C29.3704 64.6316 30.1944 63.6217 30.9936 62.646L31.6472 61.8374L31.8578 61.5772L31.9693 61.4379C34.3763 58.3866 40.9186 49.2299 41.5753 47.9226C40.3734 48.8736 39.2056 49.8494 38.0594 50.8499C37.4956 51.3518 36.8637 51.8102 36.4703 52.4545C35.826 53.2476 32.9916 56.7201 31.0617 59.0867C31.1237 59.0124 31.0091 58.5105 31.0029 58.399C30.9843 58.1171 30.9719 57.8352 30.9657 57.5533C30.9533 56.9896 30.9657 56.4227 31.0091 55.8589C31.294 52.1634 33.0938 48.5793 36.0831 46.3242C37.6784 45.1223 39.537 44.3014 41.2872 43.3659C43.2883 42.2972 45.2894 41.2316 47.2905 40.1629C47.3556 40.1288 47.4206 40.0917 47.4857 40.0576L47.8047 39.8872L47.9596 39.5589C47.9596 39.5589 48.2787 38.8867 48.5977 38.2176L54.251 42.4924L53.0646 44.2859L52.8478 44.3541H52.8416L49.2421 45.5033C49.2235 45.5095 49.2018 45.5157 49.1832 45.5188L48.985 45.5839C48.9075 45.7945 48.6752 45.7666 48.4336 45.7357C48.4026 45.7326 48.3716 45.7295 48.3406 45.7264C48.5885 45.6706 48.6566 45.6551 48.8796 45.6055C48.8858 45.6055 48.892 45.6024 48.9013 45.6024C48.9261 45.5963 48.954 45.5901 48.985 45.5839H48.9726L47.9627 45.333L48.099 45.683C48.099 45.683 48.2012 45.7233 48.2043 45.7295C48.2446 45.7109 48.034 45.7356 48.0835 45.7387C48.0402 45.748 48.1424 45.6768 48.099 45.6861C48.0959 45.6861 48.2136 45.6923 48.2105 45.6954C48.1981 45.6985 47.9968 45.7418 47.9968 45.7418C47.9968 45.7418 43.5733 47.0708 42.9445 47.2814C42.9445 47.2845 42.9476 47.2907 42.9476 47.2969C43.0808 47.7739 43.7158 50.1065 44.1185 51.5841L33.3602 64.1359H33.3571L33.0907 64.4519L33.069 64.4767L32.8863 64.6904C32.8863 64.6904 32.8863 64.6842 32.8801 64.6811C32.8801 64.6811 32.879 64.6791 32.877 64.6749L32.7128 64.8577L32.5052 65.0869H32.5083L32.5238 65.1148L32.7252 64.8794H32.7283L32.8584 64.7214C32.9172 64.7803 32.8925 64.7555 32.9544 64.8143L33.1712 64.6161L33.4593 64.3466L33.7536 64.0709L43.9264 54.6353L42.7958 60.2019L42.5851 61.9645C43.8676 62.2185 45.2244 62.5065 46.4727 62.8535C47.3432 63.0951 48.2787 63.3801 49.0345 63.8912C49.778 64.3745 50.4192 65.0157 50.9024 65.7591L52.5101 68.3798L52.7703 68.8104C52.7703 68.8104 65.7652 70.9973 66.1338 71.0345C66.0099 70.3809 64.9721 64.8298 64.4734 62.1751H68.1814C68.5779 63.2872 71.372 71.0531 72.2858 73.5994C72.3261 73.7109 72.3632 73.81 72.3942 73.8999C68.7049 74.0021 62.6953 74.191 59.926 74.2251C59.5388 74.2375 59.1578 74.2592 58.7737 74.2778L46.6431 74.1539C46.1599 74.1508 45.6766 74.0981 45.2058 73.9959C41.9501 73.302 39.3171 71.7501 37.4368 70.2942C37.4058 70.2694 37.3779 70.2477 37.3469 70.2229H37.3438C37.3438 70.2229 37.3253 70.2043 37.316 70.1981C37.031 69.9751 36.7615 69.7521 36.5137 69.5352C35.826 68.8165 35.1786 68.07 34.59 67.2956C34.5776 67.277 34.5621 67.2615 34.5497 67.2429C34.5497 67.2398 34.5435 67.2336 34.5373 67.2305C34.5373 67.2243 34.5311 67.2181 34.5249 67.2119C34.4971 67.1748 34.4661 67.1345 34.4413 67.0973C34.3577 66.9827 34.2926 66.896 34.2523 66.8433C34.2338 66.8154 34.2214 66.7969 34.2152 66.7907H34.2121C34.1904 66.7566 34.1687 66.7256 34.1439 66.6915C34.1346 66.6822 34.1284 66.673 34.1253 66.6637C33.701 66.0658 33.3106 65.4525 32.9575 64.8236C32.9575 64.8205 32.9575 64.8174 32.9544 64.8143L32.7933 64.963L32.7747 64.9785L32.5672 65.1706L32.5765 65.183L32.7716 65.4432C32.9637 65.7003 33.162 65.9543 33.3664 66.199C33.3788 66.2145 33.3912 66.2331 33.4036 66.2486C33.4996 66.3694 33.5987 66.484 33.6979 66.6017C33.7041 66.6079 33.7071 66.6141 33.7102 66.6203H33.7133V66.6234C33.8527 66.7876 33.9921 66.9517 34.1346 67.1128C34.1656 67.1469 34.1935 67.181 34.2245 67.2119C34.2957 67.2925 34.3639 67.3699 34.4413 67.4474C34.7697 67.8129 35.1073 68.1691 35.4542 68.5192C35.5224 68.5935 35.5905 68.6617 35.6587 68.7298C35.8229 68.8971 35.9901 69.0613 36.1574 69.2254C35.9654 69.052 35.7857 68.8847 35.6215 68.7298C35.6091 68.7174 35.5998 68.7081 35.5905 68.6957C35.5844 68.6926 35.5844 68.6895 35.5844 68.6895C35.0577 68.1815 34.6674 67.754 34.4258 67.4721C34.3267 67.3606 34.2554 67.2739 34.2059 67.2119C34.1842 67.1841 34.1656 67.1624 34.1532 67.1469C34.1687 67.1686 34.1811 67.1903 34.1966 67.2119C34.2585 67.3018 34.3205 67.3947 34.3856 67.4845C34.3917 67.4938 34.3979 67.5 34.4041 67.5093C34.6953 67.9213 35.0082 68.324 35.3334 68.7174C36.5911 70.226 38.0656 71.5766 39.3573 72.6391L39.5804 72.825C39.6454 72.8807 39.7105 72.9334 39.7786 72.986C40.1751 73.302 40.5469 73.5901 40.8845 73.841C40.9403 73.8844 40.996 73.9246 41.0518 73.9649C41.1137 74.0114 41.1726 74.0547 41.2345 74.0981H41.1044L39.7353 74.0826L24.2499 73.9215L21.8058 76.4369H54.6475C56.4256 76.4895 58.2068 76.5174 59.9849 76.4647C60.1862 76.4555 60.4062 76.4462 60.623 76.4369H75.6809L75.1543 75.1235C75.0675 74.8725 74.9622 74.5844 74.9622 74.5844L70.6192 62.5034C70.6812 62.4787 70.7431 62.4415 70.7927 62.3981C76.9045 57.8259 81.0058 50.1437 82.3068 41.1573C82.3099 41.1511 82.313 41.1449 82.313 41.1418C82.3161 41.1325 82.3161 41.1201 82.3192 41.1108C82.3223 41.0922 82.3285 41.0674 82.3316 41.0303C82.3378 40.9869 82.344 40.9435 82.3502 40.9002C82.3595 40.8289 82.3719 40.7484 82.3812 40.6523C82.3812 40.6338 82.3874 40.6152 82.3905 40.5966C81.9444 40.6028 81.4983 40.6121 81.0554 40.6183H81.0585ZM60.9483 67.9492C61.6452 67.7107 62.3763 67.4164 63.1569 67.0602C63.2436 67.531 63.3273 67.9709 63.4016 68.3612C62.8223 68.2652 62.0696 68.1382 60.9483 67.9492ZM68.5686 59.985C67.4658 59.985 64.9505 59.9881 63.287 59.9881C63.3428 57.2931 63.2529 54.5982 63.1104 51.9125C62.24 51.5965 61.3664 51.2867 60.4898 50.9831C61.1403 49.3321 61.766 47.6717 62.3794 46.0052C64.1482 50.4163 66.0378 54.7809 68.2154 59.0093C68.2154 59.0124 68.2185 59.0124 68.2185 59.0155C68.3827 59.3407 68.55 59.6629 68.7204 59.985H68.5686ZM32.53 65.1272L32.5207 65.1148L32.118 65.5857L32.5641 65.1706L32.53 65.1272ZM34.0572 66.738L34.209 66.7876C34.1873 66.7566 34.1656 66.7256 34.1408 66.6915C34.1315 66.6822 34.1253 66.673 34.1222 66.6637C33.6979 66.0658 33.3075 65.4525 32.9544 64.8236C32.9544 64.8205 32.9544 64.8174 32.9513 64.8143L32.7902 64.963L32.7716 64.9785L32.5641 65.1706L32.5734 65.183L32.7686 65.4432C32.9606 65.7003 33.1589 65.9543 33.3633 66.199C33.3757 66.2145 33.3881 66.2331 33.4005 66.2486C33.4965 66.3694 33.5956 66.484 33.6948 66.6017C33.701 66.6079 33.7041 66.6141 33.7072 66.6203H33.7102V66.6234C33.8496 66.7876 33.989 66.9517 34.1315 67.1128C34.1625 67.1469 34.1904 67.181 34.2214 67.2119H34.4537L34.0541 66.738H34.0572ZM32.53 65.1272L32.5207 65.1148L32.118 65.5857L32.5641 65.1706L32.53 65.1272ZM61.828 59.985C61.8373 60.0346 61.859 60.1492 61.8899 60.3134C61.893 60.3134 61.893 60.3103 61.8961 60.3103C62.0262 60.2297 62.1533 60.1461 62.2803 60.0625C62.3174 60.0346 62.3577 60.0098 62.3949 59.985C62.144 59.9881 61.9488 59.9881 61.828 59.985ZM32.53 65.1272L32.5207 65.1148L32.118 65.5857L32.5641 65.1706L32.53 65.1272ZM34.4382 67.0973C34.3546 66.9827 34.2895 66.896 34.2493 66.8433C34.2307 66.8154 34.2183 66.7969 34.2121 66.7907H34.209C34.1873 66.7566 34.1656 66.7256 34.1408 66.6915C34.1315 66.6822 34.1253 66.673 34.1222 66.6637C33.6979 66.0658 33.3075 65.4525 32.9544 64.8236C32.9544 64.8205 32.9544 64.8174 32.9513 64.8143L32.7902 64.963L32.7716 64.9785L32.5641 65.1706L32.5734 65.183L32.7686 65.4432C32.9606 65.7003 33.1589 65.9543 33.3633 66.199C33.3757 66.2145 33.3881 66.2331 33.4005 66.2486C33.4965 66.3694 33.5956 66.484 33.6948 66.6017C33.701 66.6079 33.7041 66.6141 33.7072 66.6203H33.7102V66.6234C33.8496 66.7876 33.989 66.9517 34.1315 67.1128C34.1625 67.1469 34.1904 67.181 34.2214 67.2119H34.5187C34.4909 67.1748 34.4599 67.1345 34.4351 67.0973H34.4382ZM32.53 65.1272L32.5207 65.1148L32.118 65.5857L32.5641 65.1706L32.53 65.1272ZM32.4371 44.3882L23.9463 38.6481L23.7605 38.5242L23.3794 38.264L22.0629 37.375L17.6301 34.3795L17.5744 34.3424L16.3353 33.506L9.94476 29.1847L0.32333 40.736C-0.104151 41.1604 -0.110345 41.8573 0.320234 42.2848C0.744618 42.7154 1.4385 42.7154 1.86598 42.291H1.86908L1.88147 42.2755L1.88767 42.2662L9.83014 32.3846L30.7891 45.8317C31.0091 46.0795 31.3095 46.2034 31.6131 46.2034C31.8702 46.2034 32.1304 46.1136 32.3349 45.9308C32.7933 45.5312 32.8367 44.8404 32.4371 44.3882Z" fill="#9C4322"/>
<path d="M34.1562 67.1484C34.1716 67.1699 34.1838 67.1913 34.1991 67.2127H34.2083C34.1869 67.1852 34.1685 67.1637 34.1562 67.1484Z" fill="#9C4322"/>
<path d="M34.1562 67.1484C34.1716 67.1699 34.1838 67.1913 34.1991 67.2127H34.2083C34.1869 67.1852 34.1685 67.1637 34.1562 67.1484Z" fill="#9C4322"/>
<path d="M34.1562 67.1484C34.1716 67.1699 34.1838 67.1913 34.1991 67.2127H34.2083C34.1869 67.1852 34.1685 67.1637 34.1562 67.1484Z" fill="#9C4322"/>
<path d="M37.4336 70.2978C37.4026 70.273 37.3747 70.2513 37.3438 70.2266C37.3592 70.2451 37.3747 70.2606 37.3902 70.2761C37.4057 70.2916 37.4212 70.304 37.4367 70.3195V70.3133C37.4367 70.3133 37.4336 70.304 37.4336 70.2978Z" fill="#9C4322"/>
<path d="M48.3359 47.2688L48.8842 46.0391L50.0335 46.321L50.0459 47.0675L48.3359 47.2688Z" fill="#9C4322"/>
<path d="M35.9478 69.1565C35.9478 69.1565 34.7087 67.9856 33.4046 66.2447C32.1004 64.5038 33.6896 66.2973 33.6896 66.2973L36.1615 69.2216L35.9447 69.1565H35.9478Z" fill="#9C4322"/>
<path d="M26.8115 67.7812C26.7775 67.8246 26.7403 67.868 26.7062 67.9113H26.7031L26.8115 67.7812Z" fill="#9C4322"/>
<path d="M35.5428 62.2031L33.7523 64.071L33.458 64.3467V64.3498L33.173 64.6193L32.9562 64.8238L32.7982 64.9725L32.7796 64.991L32.5752 65.1831L31.7419 65.9699L31.7264 65.9854L31.5312 66.1713L31.714 65.9668L31.7171 65.9637L32.2561 65.3659L32.5039 65.0871L32.7115 64.8578L32.8756 64.6751L33.3558 64.1392L33.3589 64.1361L35.5428 62.2031Z" fill="#9C4322"/>
<path d="M48.3409 46.5341C48.3409 46.5341 46.9903 44.09 47.6656 41.8906C48.0126 43.4395 48.3471 44.7529 49.6265 46.0044C50.9058 47.2558 48.3409 46.5341 48.3409 46.5341Z" fill="#9C4322"/>
<path d="M35.6609 68.7303H35.6175C35.5804 68.7303 35.5432 68.7303 35.506 68.7241C35.4503 68.7241 35.3945 68.721 35.3356 68.7179C35.2923 68.7148 35.2458 68.7117 35.1993 68.7086C34.778 68.6714 34.332 68.594 33.8952 68.4949C33.6908 68.4484 33.4863 68.3957 33.285 68.34C33.1703 68.309 33.0557 68.278 32.9442 68.2439C31.606 67.8505 30.5156 67.358 30.5156 67.358L31.5286 66.1716L31.7082 65.9609H31.7144L31.7392 65.9702L33.6784 66.6146H33.6815L33.7063 66.6207H33.7093V66.6238L34.047 66.7354H34.0532L34.205 66.788H34.2081C34.2081 66.788 34.2267 66.8159 34.2452 66.8438C34.2855 66.8964 34.3506 66.9832 34.4342 67.0978C34.4621 67.1319 34.49 67.1721 34.5178 67.2124C34.524 67.2186 34.5302 67.2248 34.5302 67.231C34.5364 67.2341 34.5395 67.2403 34.5426 67.2434C34.555 67.262 34.5705 67.2775 34.5829 67.296C34.7068 67.4664 34.8555 67.6616 35.0011 67.8598C35.0042 67.8629 35.0042 67.866 35.0073 67.8691C35.0135 67.8753 35.0166 67.8784 35.0197 67.8846C35.2427 68.182 35.4719 68.4887 35.6578 68.7303H35.6609Z" fill="#9C4322"/>
<path d="M66.482 34.0195C66.609 33.7624 66.8538 33.5549 67.114 33.4465C67.2472 33.3907 67.3866 33.3319 67.526 33.2823L67.2224 33.0097L66.5998 32.4521L48.2707 16.0312L47.4746 16.7406L33.5071 29.215L23.3777 38.2634L23.1484 38.4678C23.2569 38.5453 23.3622 38.6258 23.4644 38.7094L23.7587 38.5236L25.0287 37.7089H25.0349L33.4823 32.3127L46.1674 24.2092L47.8246 23.1497L48.0694 22.9949L59.283 29.8191H59.2861L65.4288 33.558H65.4319L66.0948 33.9638L66.4232 34.162C66.4418 34.1156 66.4604 34.066 66.4851 34.0195H66.482Z" fill="#EFD8C4"/>
<path d="M66.9875 33.5577C67.2724 33.4152 67.5853 33.3315 67.8982 33.2727C68.2017 33.2169 68.5146 33.1643 68.8244 33.1797C68.9514 33.1859 69.0784 33.2014 69.2054 33.2138L68.7655 32.8173L67.9137 32.0429L48.4757 14.3984L46.7286 15.9163L33.5231 27.4056L26.7825 33.2696L26.4356 33.5731L25.6147 34.2856L23.9203 35.7601L22.0616 37.3771L20.6491 38.6038L20.5469 38.6936C20.7544 38.7773 20.9589 38.8671 21.1571 38.9662C21.1602 38.9662 21.1602 38.9693 21.1633 38.9693C21.6558 39.2171 22.1174 39.5176 22.5387 39.8615L23.945 38.6503L25.0292 37.7117H25.0354L33.4983 30.4135L48.2991 17.6541L48.361 17.5984L65.7917 33.0961L66.371 33.6134L66.6312 33.8426C66.7272 33.7249 66.8512 33.6258 66.9875 33.5577Z" fill="#9C4322"/>
<path d="M16.7423 35.7164L15.3359 35.0659C16.4728 32.6095 18.9571 31.0234 21.6645 31.0234C23.9692 31.0234 26.1252 32.1634 27.4262 34.0685L26.1469 34.942C25.1339 33.4582 23.4581 32.5723 21.6645 32.5723C19.5612 32.5723 17.6282 33.8083 16.7423 35.7164Z" fill="#9C4322"/>
<path d="M79.9258 28.155C79.9505 28.3346 79.9784 28.5236 80.0032 28.728C80.0404 28.9913 80.0744 29.2732 80.1116 29.5737C80.1364 29.7812 80.1612 29.9981 80.186 30.2211C80.2076 30.4163 80.2293 30.6176 80.251 30.8221C80.3935 30.8716 80.5081 30.8902 80.6537 30.8902C80.725 30.8902 80.79 30.8902 80.8582 30.8809C81.0409 30.6703 81.2547 30.4813 81.4746 30.3264C81.7317 30.1468 82.0694 29.9237 82.4132 29.8432C82.4039 29.7503 82.3946 29.6635 82.3853 29.5706C82.3822 29.521 82.376 29.4715 82.3698 29.4219C82.2893 29.2299 82.2118 29.0285 82.1437 28.821C82.122 28.7652 82.1034 28.7094 82.0848 28.6537C81.4219 26.6371 81.1927 24.2271 81.1803 24.1094L80.1612 25.6737L79.6562 26.4512C79.6562 26.4512 79.7709 27.0677 79.9134 28.0837C79.9196 28.1054 79.9227 28.1302 79.9258 28.155Z" fill="#9C4322"/>
<path d="M82.5789 38.6437C82.5603 38.9256 82.5386 39.1827 82.52 39.4181C82.4921 39.7124 82.4674 39.9695 82.4426 40.1926C82.4271 40.3444 82.4085 40.4776 82.3961 40.5953C82.393 40.6139 82.3899 40.6324 82.3868 40.651C82.3775 40.7471 82.3651 40.8276 82.3558 40.8957C82.3496 40.9422 82.3435 40.9856 82.3373 41.029C82.3342 41.0661 82.328 41.0909 82.3249 41.1095C82.3218 41.1281 82.3218 41.1374 82.3218 41.1374C82.3218 41.1374 82.3218 41.1374 82.3187 41.1374C82.3187 41.1405 82.3156 41.1467 82.3125 41.1529C82.235 41.2861 81.7115 42.1348 80.8008 42.5344C80.7698 42.5468 80.7389 42.5592 80.7048 42.5716C80.4415 42.6738 80.1503 42.7358 79.8281 42.7358C79.9613 42.268 80.0295 41.7476 80.0945 41.2179V41.2086C80.1286 40.9143 80.1596 40.6201 80.1999 40.3258C80.206 40.2793 80.2122 40.2359 80.2184 40.1895C80.2525 39.9355 80.2835 39.6753 80.3114 39.415C80.3393 39.161 80.364 38.9008 80.3857 38.6406H82.5789V38.6437Z" fill="#9C4322"/>
<path d="M87.3521 32.7222L87.3335 32.8213C87.3335 32.8213 86.7945 30.2719 84.084 29.6927C83.418 29.5502 82.8511 29.5254 82.3803 29.5688C81.8227 29.6245 81.3952 29.7732 81.0792 29.9343C80.8655 30.0427 80.7075 30.1604 80.5898 30.2564C80.4318 30.3896 80.3575 30.4888 80.3575 30.4888C80.3575 30.4888 80.2986 30.3865 80.1809 30.2193C79.9021 29.8073 79.2764 28.9833 78.3409 28.2863C78.0652 28.0788 77.7647 27.8836 77.4363 27.7132C76.2871 27.1185 74.8219 26.8242 73.081 27.419C68.4747 28.9957 69.1345 32.8833 69.1345 32.8833C69.1345 32.8833 68.9951 32.843 68.7659 32.8151C68.4004 32.7687 67.8118 32.7594 67.2233 33.0103C66.929 33.1342 66.6347 33.3263 66.3714 33.6112C66.2754 33.7166 66.1824 33.8343 66.0957 33.9644C65.8882 34.2711 65.7116 34.6552 65.5846 35.1353C64.7668 38.1834 67.7777 39.4194 68.7163 39.4194H71.653C71.1604 39.3513 70.671 39.2769 70.1754 39.2305C68.8991 39.1096 67.3905 39.0105 66.5696 37.8768C66.3373 37.5577 66.2289 37.1984 66.1391 36.8205C66.0368 36.393 65.8881 35.9686 65.8758 35.5287C65.8479 34.5746 66.5727 33.7661 67.4122 33.4099C67.8645 33.2178 68.326 33.1807 68.8124 33.1652C69.0571 33.1559 69.2646 33.1869 69.3978 32.9855C69.909 32.2018 69.6983 31.1826 70.0917 30.3556C70.1382 30.2533 70.2032 30.1852 70.2776 30.1387C70.6462 29.2466 71.3958 28.562 72.2756 28.181C73.2638 27.7535 74.3449 27.6761 75.4074 27.7659C76.2592 27.8402 77.3062 27.9425 77.9103 28.6271C78.0218 28.751 78.0621 28.8904 78.0559 29.0236C78.5019 29.3767 78.8582 29.7577 79.1277 30.0799C79.2547 30.0148 79.3972 30.0055 79.5335 30.0365C79.7844 30.0923 79.9826 30.2502 80.1778 30.4051C80.3389 30.5259 80.5185 30.622 80.6858 30.7335C81.0359 30.4206 81.485 30.1976 81.9125 30.0334C82.7334 29.7236 83.6472 29.6896 84.4743 29.9993C84.846 30.1387 85.1992 30.3401 85.4718 30.6344C85.7784 30.9658 85.9209 31.3685 86.0944 31.7743C86.4197 32.5425 86.9834 32.843 87.7795 32.9731C88.715 33.1249 89.5483 33.4316 90.205 34.144C90.8091 34.7977 91.1622 35.5411 90.964 36.4456C90.7874 37.2448 90.2329 38.0781 89.4864 38.4467C89.0372 38.6667 88.5509 38.7627 88.0614 38.8308C87.5503 38.9021 87.0702 39.0384 86.5683 39.1561C85.5399 39.3946 84.4495 39.3234 83.4025 39.311C83.0308 39.3079 82.6436 39.3203 82.2533 39.3141C82.0178 39.3482 81.7855 39.3822 81.5501 39.4132H88.3154C88.3154 39.4132 91.187 39.3544 91.4472 35.9469C91.7136 32.4279 87.3582 32.716 87.3582 32.716L87.3521 32.7222Z" fill="white"/>
<path d="M91.2854 33.217C90.2663 32.1886 88.6865 31.9841 87.8532 31.9501C87.4598 31.0053 86.4747 29.4131 84.2444 28.936C83.4173 28.7594 82.7203 28.7471 82.1379 28.8214C81.6671 28.8833 81.2737 29.0042 80.9515 29.1436C80.7936 29.2148 80.6542 29.286 80.5302 29.3604C80.4466 29.2489 80.3568 29.1374 80.2607 29.0258C80.1895 28.9422 80.1152 28.8555 80.0377 28.7718C80.0253 28.7594 80.0129 28.744 79.9975 28.7285C79.3191 27.9974 78.4145 27.2756 77.3272 26.8203C76.0572 26.2844 74.5362 26.1078 72.8294 26.6902C69.4374 27.8487 68.4307 30.3083 68.3253 32.0182C68.1952 32.0182 68.0558 32.0275 67.9134 32.043C67.5014 32.0864 67.046 32.2041 66.5999 32.455C66.2964 32.6254 66.0269 32.8391 65.7914 33.0962C65.6613 33.2387 65.5405 33.3936 65.4321 33.5609H65.429C65.175 33.9512 64.9767 34.4096 64.8373 34.9362C64.3944 36.5904 64.9241 37.7489 65.4476 38.4304C66.38 39.6478 67.9195 40.1961 68.7157 40.1961H88.3271C89.5631 40.1713 91.9638 39.2637 92.2116 36.0111C92.2984 34.8681 91.9855 33.9264 91.2854 33.217ZM88.3086 38.6473H68.7157C68.3873 38.6473 67.3 38.3034 66.6743 37.4887C66.2158 36.8909 66.1043 36.1877 66.3335 35.3358C66.4358 34.9517 66.5782 34.6296 66.7579 34.3694C66.8168 34.2826 66.8818 34.2021 66.9531 34.1308C67.0708 34.0007 67.204 33.8954 67.3496 33.8118C67.5261 33.7096 67.7089 33.6476 67.8886 33.6104C68.0527 33.5763 68.2138 33.564 68.3563 33.564C68.6816 33.564 68.9139 33.6259 68.917 33.629C69.1338 33.691 69.3693 33.6569 69.5551 33.533C69.5892 33.5113 69.6202 33.4896 69.6481 33.4617C69.8463 33.2852 69.9423 33.0188 69.8959 32.7555C69.8742 32.6223 69.394 29.4998 73.3312 28.1554C75.0535 27.5668 76.4661 27.9819 77.5193 28.651C77.5255 28.651 79.635 30.7853 79.6877 30.8783C79.8147 31.0982 80.0346 31.2469 80.2886 31.2686C80.2948 31.2717 80.3041 31.2717 80.3103 31.2717C80.5736 31.2841 80.8152 31.1756 80.9701 30.965C80.9701 30.9619 80.9794 30.9557 80.9887 30.9433C81.0228 30.9092 81.0878 30.8442 81.1993 30.7667C81.4255 30.6057 81.8282 30.4012 82.4601 30.3424C82.8535 30.3052 83.3368 30.3269 83.9222 30.4508C86.0875 30.9123 86.5584 32.9042 86.5738 32.9847C86.6637 33.4029 87.0757 33.6693 87.4939 33.5825C87.5775 33.564 87.6549 33.533 87.7231 33.4927C88.3891 33.5113 89.5569 33.6724 90.1889 34.3105C90.5637 34.6915 90.7186 35.2088 90.6659 35.8965C90.4707 38.4893 88.5099 38.6411 88.3086 38.6473Z" fill="#9C4322"/>
<path d="M42.9845 74.3879C42.8296 74.3414 42.7119 74.3259 42.619 74.3352C42.2875 74.3476 42.2411 74.5923 41.8941 74.4963C41.8198 74.4777 41.7361 74.4405 41.6308 74.3879C41.4573 74.298 41.2839 74.1989 41.1104 74.0936C41.0918 74.0843 41.0794 74.075 41.0639 74.0626H41.0608C39.0009 72.839 36.8882 70.8317 35.2031 68.7036C34.9088 68.335 34.63 67.9633 34.3667 67.5915C34.2769 67.4645 34.1871 67.3344 34.1003 67.2074C34.0074 67.068 33.9145 66.9317 33.8277 66.7923C33.8246 66.7892 33.8215 66.783 33.8184 66.7799C33.7813 66.7273 33.7472 66.6715 33.7131 66.6189H33.71C33.71 66.6189 33.7038 66.6034 33.6976 66.5972C33.5211 66.3184 33.3538 66.0396 33.1958 65.7639C33.1958 65.7639 33.1958 65.7639 33.1958 65.7577C33.0471 65.4975 32.9108 65.2373 32.7838 64.9864C32.7807 64.9802 32.7776 64.9771 32.7776 64.974C32.759 64.9399 32.7435 64.9089 32.728 64.8749C32.7249 64.8687 32.7218 64.8656 32.7188 64.8594C32.7249 64.8625 32.728 64.8687 32.7311 64.8718C32.7528 64.8996 32.7745 64.9306 32.7962 64.9585C32.7962 64.9616 32.7993 64.9647 32.8024 64.9678C33.233 65.5378 33.6728 66.1046 34.1282 66.6591C34.1313 66.6684 34.1375 66.6777 34.1468 66.687C34.2862 66.8605 34.4256 67.0309 34.5712 67.2012C35.2774 68.0531 36.0178 68.8833 36.7953 69.6701C36.913 69.794 37.0338 69.9179 37.1608 70.0356C37.2135 70.0914 37.2662 70.1409 37.3188 70.1936C37.3281 70.1998 37.3374 70.2091 37.3467 70.2184C37.3622 70.237 37.3808 70.2525 37.3963 70.2679C37.4117 70.2834 37.4272 70.2958 37.4427 70.3113C38.8088 71.6309 40.2926 72.8173 41.9344 73.7962C42.2782 74.0038 42.6314 74.202 42.9907 74.3879H42.9845Z" fill="#9C4322"/>
</svg>
