<svg width="29" height="28" viewBox="0 0 29 28" fill="none" xmlns="http://www.w3.org/2000/svg">
<path d="M14.1094 9.8C11.789 9.8 9.90937 11.6803 9.90937 14C9.90937 16.3202 11.7897 18.2 14.1094 18.2C16.4296 18.2 18.3094 16.3197 18.3094 14C18.3094 11.6798 16.429 9.8 14.1094 9.8ZM14.1094 7C17.9739 7 21.1094 10.1319 21.1094 14C21.1094 17.8647 17.9774 21 14.1094 21C10.2447 21 7.10937 17.8681 7.10937 14C7.10937 10.1353 10.2413 7 14.1094 7ZM23.2094 6.64881C23.2094 7.61496 22.4243 8.39884 21.4594 8.39884C20.4932 8.39884 19.7094 7.61376 19.7094 6.64881C19.7094 5.68386 20.4944 4.9 21.4594 4.9C22.423 4.89878 23.2094 5.68386 23.2094 6.64881ZM14.1094 2.8C10.6451 2.8 10.0804 2.80917 8.46917 2.88092C7.37141 2.93245 6.63554 3.0801 5.95182 3.34554C5.34422 3.58119 4.90592 3.86257 4.43893 4.32957C3.97014 4.79836 3.68926 5.23548 3.45456 5.84336C3.1885 6.52865 3.0409 7.26335 2.99029 8.35961C2.91784 9.90528 2.90937 10.4455 2.90937 14C2.90937 17.4643 2.91854 18.0289 2.99028 19.64C3.04184 20.7374 3.18968 21.4743 3.45448 22.1564C3.69074 22.7648 3.9727 23.2042 4.43744 23.669C4.90808 24.1389 5.3465 24.4208 5.94862 24.6532C6.64066 24.9207 7.37607 25.0685 8.46896 25.1191C10.0146 25.1915 10.5548 25.2 14.1094 25.2C17.5737 25.2 18.1383 25.1908 19.7494 25.1191C20.8444 25.0677 21.5819 24.9194 22.2658 24.6548C22.8725 24.4192 23.3133 24.1363 23.7783 23.6719C24.249 23.2005 24.5303 22.7632 24.763 22.1596C25.0298 21.4701 25.1779 20.7337 25.2285 19.6405C25.3008 18.0947 25.3094 17.5545 25.3094 14C25.3094 10.5357 25.3001 9.97109 25.2285 8.35992C25.1769 7.26468 25.0287 6.52609 24.7638 5.84245C24.5287 5.23653 24.2464 4.79689 23.7797 4.32957C23.3102 3.86001 22.8742 3.5797 22.2659 3.34519C21.5812 3.07936 20.8453 2.93154 19.7497 2.88093C18.2041 2.80847 17.6638 2.8 14.1094 2.8ZM14.1094 0C17.9126 0 18.3875 0.0139999 19.8809 0.0839999C21.3706 0.152838 22.3869 0.3885 23.2794 0.735C24.2021 1.09084 24.9815 1.5715 25.7596 2.34966C26.5366 3.12784 27.0174 3.9095 27.3744 4.83C27.7196 5.72134 27.9554 6.73866 28.0254 8.2285C28.0919 9.72184 28.1094 10.1967 28.1094 14C28.1094 17.8034 28.0954 18.2781 28.0254 19.7715C27.9565 21.2614 27.7196 22.2775 27.3744 23.17C27.0185 24.0929 26.5366 24.8721 25.7596 25.6504C24.9815 26.4274 24.1986 26.908 23.2794 27.265C22.3869 27.6104 21.3706 27.846 19.8809 27.916C18.3875 27.9825 17.9126 28 14.1094 28C10.306 28 9.83119 27.986 8.33787 27.916C6.84803 27.8471 5.83303 27.6104 4.93937 27.265C4.0177 26.9091 3.2372 26.4274 2.45903 25.6504C1.68087 24.8721 1.20137 24.0894 0.844374 23.17C0.497875 22.2775 0.263375 21.2614 0.193375 19.7715C0.126875 18.2781 0.109375 17.8034 0.109375 14C0.109375 10.1967 0.123375 9.72184 0.193375 8.2285C0.262199 6.7375 0.497875 5.7225 0.844374 4.83C1.2002 3.90834 1.68087 3.12784 2.45903 2.34966C3.2372 1.5715 4.01887 1.092 4.93937 0.735C5.83187 0.3885 6.84687 0.154 8.33787 0.0839999C9.83119 0.0174999 10.306 0 14.1094 0Z" fill="#9C4322"/>
</svg>
