<svg width="29" height="28" viewBox="0 0 29 28" fill="none" xmlns="http://www.w3.org/2000/svg">
<path d="M1.66493 0H26.5538C27.413 0 28.1094 0.696453 28.1094 1.55556V26.4444C28.1094 27.3036 27.413 28 26.5538 28H1.66493C0.805812 28 0.109375 27.3036 0.109375 26.4444V1.55556C0.109375 0.696453 0.805812 0 1.66493 0ZM3.22048 3.11111V24.8889H24.9983V3.11111H3.22048ZM7.10937 9.33333C5.8207 9.33333 4.77604 8.28867 4.77604 7C4.77604 5.71133 5.8207 4.66667 7.10937 4.66667C8.39802 4.66667 9.4427 5.71133 9.4427 7C9.4427 8.28867 8.39802 9.33333 7.10937 9.33333ZM5.55381 10.8889H8.66492V22.5556H5.55381V10.8889ZM14.1094 11.557C15.0185 10.6794 16.0779 10.1111 17.2205 10.1111C20.4421 10.1111 22.6649 12.7227 22.6649 15.9444V22.5556H19.5538V15.9444C19.5538 14.441 18.3351 13.2222 16.8316 13.2222C15.3282 13.2222 14.1094 14.441 14.1094 15.9444V22.5556H10.9983V10.8889H14.1094V11.557Z" fill="#9C4322"/>
</svg>
