<svg width="30" height="28" viewBox="0 0 30 28" fill="none" xmlns="http://www.w3.org/2000/svg">
<path d="M7.72568 23.0922L8.77654 23.6838C10.5321 24.6722 12.5273 25.2 14.6094 25.2C21.0159 25.2 26.2094 20.1856 26.2094 14C26.2094 7.81441 21.0159 2.8 14.6094 2.8C8.20286 2.8 3.00937 7.81441 3.00937 14C3.00937 16.0108 3.55636 17.9379 4.58071 19.6333L5.19316 20.6469L4.2456 24.0092L7.72568 23.0922ZM0.115436 28L2.07578 21.0441C0.825617 18.975 0.109375 16.5683 0.109375 14C0.109375 6.26801 6.60124 0 14.6094 0C22.6174 0 29.1094 6.26801 29.1094 14C29.1094 21.7319 22.6174 28 14.6094 28C11.9502 28 9.45829 27.309 7.31569 26.1026L0.115436 28ZM9.37681 7.43166C9.57094 7.41849 9.76571 7.41647 9.9601 7.42563C10.0386 7.43061 10.1168 7.43938 10.195 7.4481C10.4259 7.47384 10.6799 7.60963 10.7652 7.79652C11.1978 8.7435 11.6175 9.69591 12.0243 10.6535C12.1141 10.8649 12.06 11.1389 11.8892 11.404C11.8025 11.5399 11.6663 11.7306 11.5085 11.9256C11.3446 12.1282 10.9916 12.5007 10.9916 12.5007C10.9916 12.5007 10.8486 12.6662 10.9025 12.8722C10.9235 12.95 10.9905 13.0634 11.0512 13.1587C11.0848 13.2115 11.1161 13.2587 11.1363 13.2913C11.5074 13.8895 12.0062 14.496 12.6155 15.0662C12.7901 15.2296 12.9594 15.3964 13.1416 15.5512C13.8206 16.1293 14.5888 16.6016 15.4185 16.9515L15.4259 16.9547C15.5484 17.0057 15.6113 17.0335 15.7907 17.107C15.8812 17.144 15.9737 17.1759 16.0687 17.2001C16.103 17.2088 16.1383 17.2137 16.1736 17.2161C16.4081 17.2297 16.5437 17.0845 16.6015 17.0177C17.6506 15.7906 17.7466 15.7105 17.7539 15.7111V15.7133C17.8918 15.573 18.1085 15.5243 18.302 15.5358C18.3903 15.541 18.4781 15.5574 18.5585 15.5928C19.3296 15.9324 20.5903 16.4622 20.5903 16.4622L21.4335 16.8281C21.5747 16.8939 21.7037 17.0489 21.7099 17.1996C21.7137 17.2932 21.7241 17.4444 21.6894 17.7211C21.6441 18.0832 21.5299 18.5193 21.4166 18.7478C21.3368 18.9081 21.2336 19.0504 21.1135 19.1708C20.9507 19.334 20.8297 19.4331 20.634 19.574C20.5148 19.6596 20.453 19.7 20.453 19.7C20.2516 19.8226 20.1381 19.8839 19.8981 20.0073C19.5249 20.1992 19.1125 20.3095 18.6901 20.3305C18.4209 20.3438 18.1523 20.3626 17.8833 20.3486C17.8715 20.3479 17.0595 20.2275 17.0595 20.2275C14.9977 19.7039 13.091 18.723 11.4909 17.3628C11.1638 17.0848 10.8604 16.7839 10.5508 16.4863C9.26162 15.2471 8.28569 13.911 7.6939 12.647C7.40207 12.0238 7.21728 11.3562 7.21437 10.6694C7.20902 9.81967 7.49713 8.99248 8.0332 8.3186C8.13887 8.18576 8.23917 8.04797 8.41223 7.8902C8.59549 7.72311 8.71213 7.63342 8.83777 7.57135C9.00525 7.48863 9.18919 7.44439 9.37681 7.43166Z" fill="#9C4322"/>
</svg>
